<svg width="54" height="71" viewBox="0 0 54 71" fill="none" xmlns="http://www.w3.org/2000/svg">
<path d="M11.7127 52.5372C16.0994 56.6595 21.2746 59.299 24.6346 58.4085C31.1482 56.6824 43.08 45.9178 47.8655 35.5479C48.9564 33.1792 52.1606 23.6264 41.4939 19.091C31.3178 14.7668 24.5521 32.0408 21.2838 30.2551C15.6227 27.1611 9.82874 24.9439 5.00195 32.1877C1.83452 36.9434 3.23717 44.0036 8.61861 49.099M4.80961 55.8607C25.6294 77.7665 39.601 59.9279 50.6847 46.2253M44.006 59.9279C45.207 58.7757 46.0321 57.4628 47.2926 56.0719M9.6134 64.5322C13.8718 67.7134 26.0877 76.1278 40.8569 62.3609M2.00893 45.8489C3.02655 48.9979 12.671 62.1083 23.09 62.1083C36.6766 62.1083 52.5 38.7795 52.5 35.2586M9.86545 16.1118C7.8073 15.8731 7.19765 15.9649 5.02032 17.1355M43.4102 8.99196C30.1537 3.52012 23.6538 14.675 19.0104 17.1997C17.7819 17.8699 14.289 16.8004 14.289 16.8004M38.7437 4.4015C27.7425 0.940277 22.2144 11.3102 17.9514 12.5588C14.1926 13.6605 11.8503 12.1319 7.7569 12.1043M49.7542 20.4957C32.7114 4.30052 24.5751 27.2024 20.798 26.0777C14.3027 24.1406 7.35357 20.2249 1.5 31.5771M46.371 13.8533C30.268 4.54386 24.396 20.5141 20.0231 21.2256C14.1191 22.1851 10.3741 16.4516 3.13158 23.3556M30.2635 1.36263C25.0058 0.33895 20.8529 7.40369 17.5158 8.48705C14.0825 9.60712 11.1122 8.028 11.1122 8.028M21.1967 1C19.7253 2.17516 18.4648 5.20029 14.9077 4.17661M17.4518 36.1401L22.3703 40.5791C22.8378 40.6341 23.31 40.5469 23.7271 40.3312L35.4709 27.6569C36.0806 26.9729 36.9377 26.5184 37.8545 26.5184C40.5681 26.5093 41.9525 29.8465 41.2236 31.5542C39.4451 35.7315 26.6287 49.8381 23.585 50.4165C19.7666 51.1418 15.9162 45.7709 11.5432 40.4597C11.2957 40.1613 11.1307 39.7298 11.0528 39.2295C10.4844 35.6856 14.9399 33.5832 17.4472 36.1447L17.4518 36.1401ZM7.58285 40.3403C6.8311 38.1094 7.2299 35.984 8.37127 34.2993C12.9184 27.5742 19.8813 33.6337 22.4712 35.2679C23.3421 35.8187 32.0285 25.9813 32.0285 25.9813C34.1325 24.0487 36.374 22.2585 38.5651 22.4926C44.4324 23.1169 47.0773 29.2406 44.657 33.2113C40.6324 39.8216 30.1675 53.5242 23.6309 54.4285C20.9768 54.7958 16.7964 52.2985 13.3539 48.819C13.0605 48.5206 11.2041 46.5237 9.6135 44.1734C8.77007 42.9294 8.00457 41.5844 7.58285 40.3403Z" stroke="#003B49" stroke-width="2" stroke-linecap="round" stroke-linejoin="round"/>
</svg>
